<?xml version="1.0" encoding="UTF-8"?>
<svg xmlns="http://www.w3.org/2000/svg" xmlns:xlink="http://www.w3.org/1999/xlink" width="652" height="164" viewBox="0 0 652 164">
  <defs>
    <clipPath id="clip-path">
      <rect id="Rectangle_510" data-name="Rectangle 510" width="652" height="164" transform="translate(-12384 -3398)" fill="#fff" opacity="0.2"></rect>
    </clipPath>
    <linearGradient id="linear-gradient" y1="0.5" x2="1" y2="0.5" gradientUnits="objectBoundingBox">
      <stop offset="0" stop-color="#006db0"></stop>
      <stop offset="1" stop-color="#022147"></stop>
    </linearGradient>
  </defs>
  <g id="ropstam_color_logo_svg" data-name="ropstam color logo svg" transform="translate(12384 3398)" clip-path="url(#clip-path)">
    <g id="Ropstam_logo" data-name="Ropstam logo" transform="translate(-12375.627 -3393.076)">
      <path id="Path_8215" data-name="Path 8215" d="M217.09,416.246h27.184V430.38h.363c5.8-10.694,13.413-16.31,25.372-16.31a35.668,35.668,0,0,1,9.061.906v24.829a41.94,41.94,0,0,0-11.6-1.812c-20.662,0-23.2,11.964-23.2,29.539v36.788H217.09V416.241Z" transform="translate(-217.09 -390.143)" fill="#022147"></path>
      <path id="Path_8216" data-name="Path 8216" d="M601.02,416.251h25.009v11.6h.363c4.167-6.343,14.678-13.772,27-13.772,26.1,0,43.315,18.849,43.315,45.491,0,24.466-15.225,46.94-40.233,46.94-11.237,0-21.747-3.082-27.911-11.6H628.2v50.744H601.02Zm46.756,66.332c13.592,0,21.747-9.062,21.747-22.29S661.368,438,647.776,438s-21.747,9.061-21.747,22.29S634.184,482.583,647.776,482.583Z" transform="translate(-436.919 -390.148)" fill="#022147"></path>
      <path id="Path_8217" data-name="Path 8217" d="M879.985,442.16a19.419,19.419,0,0,0-15.768-7.429c-4.531,0-9.967,1.992-9.967,7.249,0,13.049,45.85,1.992,45.85,35.523,0,22.474-21.747,29-40.6,29-12.323,0-25.915-3.082-34.613-11.959l16.49-18.307c5.074,6.163,11.058,9.6,19.213,9.6,6.163,0,12.323-1.633,12.323-6.343,0-14.135-45.85-2.176-45.85-35.7,0-20.662,18.486-29.723,36.972-29.723,11.6,0,24.466,2.9,32.621,11.6l-16.674,16.494Z" transform="translate(-565.101 -390.143)" fill="#022147"></path>
      <path id="Path_8218" data-name="Path 8218" d="M1067.133,405.94H1043.21V435.3c0,9.425,1.09,16.311,12.87,16.311,2.9,0,8.7-.363,11.057-2.539v22.654c-5.98,2.176-12.686,2.718-19.029,2.718-18.123,0-32.078-7.429-32.078-26.641V405.936h-17.4V384.188h17.4v-26.1h27.184v26.1h23.923v21.747Z" transform="translate(-664.58 -358.09)" fill="#022147"></path>
      <path id="Path_8219" data-name="Path 8219" d="M1226.43,493.262h-.364c-5.98,9.425-16.853,13.229-27.911,13.229-16.494,0-31.356-9.425-31.356-27.184,0-30.445,36.972-30.993,59.626-30.993,0-9.6-7.976-15.768-17.4-15.768-8.882,0-16.31,3.988-22.111,10.51l-14.5-14.862c9.967-9.425,24.466-14.135,38.784-14.135,31.715,0,40.233,16.131,40.233,45.491v44.764h-25.008V493.262Zm-6.707-27.548c-8.335,0-26.821.727-26.821,12.686,0,6.523,6.886,9.6,12.87,9.6,10.694,0,20.662-5.616,20.662-16.494v-5.8h-6.706Z" transform="translate(-760.87 -390.137)" fill="#022147"></path>
      <path id="Path_8220" data-name="Path 8220" d="M1378.96,416.246h26.1V428.2h.363c3.625-6.886,12.507-14.135,25.735-14.135,12.323,0,22.474,5.074,27.184,15.768,6.343-11.237,14.861-15.768,27.911-15.768,23.923,0,31.172,16.853,31.172,38.242v52.013H1490.24V453.034c0-8.155-3.082-15.041-11.964-15.041-12.507,0-16.49,8.882-16.49,19.756v46.576H1434.6V457.749c0-6.523.363-19.756-12.143-19.756-14.135,0-16.31,11.057-16.31,22.474v43.858h-27.184V416.246Z" transform="translate(-882.348 -390.143)" fill="#022147"></path>
      <path id="Path_8221" data-name="Path 8221" d="M765.19,686.692l1.44-2.522a14.312,14.312,0,0,0,8.425,2.659c4.5,0,6.352-1.53,6.352-3.872,0-6.172-15.357-1.308-15.357-10.673,0-3.872,3.334-6.753,9.369-6.753a16.058,16.058,0,0,1,8.378,2.205l-1.4,2.569a12.147,12.147,0,0,0-6.98-2.026c-4.279,0-6.172,1.667-6.172,3.919,0,6.394,15.357,1.577,15.357,10.673,0,4.1-3.6,6.753-9.775,6.753-3.919,0-7.7-1.261-9.638-2.928Z" transform="translate(-530.919 -534.122)" fill="#3e9fff"></path>
      <path id="Path_8222" data-name="Path 8222" d="M876.77,677.544a12.047,12.047,0,1,1,12.07,12.07A11.65,11.65,0,0,1,876.77,677.544Zm20.854,0c0-5.54-3.74-9.233-8.784-9.233s-8.826,3.693-8.826,9.233,3.783,9.232,8.826,9.232S897.624,683.083,897.624,677.544Z" transform="translate(-594.807 -534.117)" fill="#3e9fff"></path>
      <path id="Path_8223" data-name="Path 8223" d="M1006.36,643.18h3.2V676.6h-3.2Z" transform="translate(-669.007 -521.326)" fill="#3e9fff"></path>
      <path id="Path_8224" data-name="Path 8224" d="M1113.7,665.94v23.692h-3.065v-4.326a9.424,9.424,0,0,1-8.51,4.548c-6.036,0-10-3.377-10-10.177V665.94h3.2v13.421c0,5.044,2.611,7.612,7.116,7.612,4.954,0,8.061-3.2,8.061-8.6V665.94h3.2Z" transform="translate(-718.11 -534.357)" fill="#3e9fff"></path>
      <path id="Path_8225" data-name="Path 8225" d="M1229.04,681.248a7.607,7.607,0,0,1-5,1.667c-4.458,0-6.937-2.522-6.937-6.89V661.7h-4.232V659h4.232v-5.18h3.2V659h7.206v2.7H1220.3v14.143c0,2.791,1.44,4.326,4.1,4.326a5.285,5.285,0,0,0,3.513-1.218Z" transform="translate(-787.249 -527.417)" fill="#3e9fff"></path>
      <path id="Path_8226" data-name="Path 8226" d="M1320.55,645.433a2.309,2.309,0,0,1,2.342-2.253,2.273,2.273,0,0,1,2.342,2.205,2.342,2.342,0,0,1-4.684.043Zm.722,7.476h3.2V676.6h-3.2Z" transform="translate(-848.904 -521.326)" fill="#3e9fff"></path>
      <path id="Path_8227" data-name="Path 8227" d="M1402.94,677.544a12.049,12.049,0,1,1,12.07,12.07A11.65,11.65,0,0,1,1402.94,677.544Zm20.854,0c0-5.54-3.74-9.233-8.784-9.233s-8.826,3.693-8.826,9.233,3.783,9.232,8.826,9.232S1423.794,683.083,1423.794,677.544Z" transform="translate(-896.078 -534.117)" fill="#3e9fff"></path>
      <path id="Path_8228" data-name="Path 8228" d="M1554.339,675.644v13.737h-3.2V675.96c0-5-2.612-7.565-7.117-7.565-5.091,0-8.288,3.15-8.288,8.557v12.43h-3.2V665.69h3.06v4.368c1.71-2.881,4.911-4.548,9.01-4.548C1550.377,665.51,1554.339,668.844,1554.339,675.644Z" transform="translate(-970.284 -534.111)" fill="#3e9fff"></path>
      <path id="Path_8229" data-name="Path 8229" d="M1654.12,686.692l1.441-2.522a14.311,14.311,0,0,0,8.424,2.659c4.505,0,6.351-1.53,6.351-3.872,0-6.172-15.357-1.308-15.357-10.673,0-3.872,3.334-6.753,9.369-6.753a16.07,16.07,0,0,1,8.378,2.205l-1.4,2.569a12.148,12.148,0,0,0-6.98-2.026c-4.278,0-6.172,1.667-6.172,3.919,0,6.394,15.357,1.577,15.357,10.673,0,4.1-3.6,6.753-9.775,6.753-3.919,0-7.7-1.261-9.638-2.928Z" transform="translate(-1039.898 -534.122)" fill="#3e9fff"></path>
      <g id="Group_1840" data-name="Group 1840" transform="translate(64.972 21.354)">
        <path id="Path_8230" data-name="Path 8230" d="M384.542,561.746a5.877,5.877,0,0,0-1.607,2.483c-.013.034-.021.068-.034.1a6.66,6.66,0,0,0-.2.816,6.473,6.473,0,0,0-.017,2.073.626.626,0,0,0,.013.081,47.5,47.5,0,0,1-4.283-6.7c-.026-.043-.051-.09-.077-.137a32.607,32.607,0,0,1-2.59-5.633c.449.269.851.556,1.287.761a6.484,6.484,0,0,0,1.423.479,9.205,9.205,0,0,0,1.5.111c.5.017,1,0,1.556,0,.133.248.269.5.4.765l.051-.026,2.573,4.821Z" transform="translate(-372.907 -492.092)" fill="#006db0"></path>
        <path id="Path_8231" data-name="Path 8231" d="M405.668,577.746a3.43,3.43,0,0,1-3.736,2.988,3.5,3.5,0,1,1,.637-6.971,3.412,3.412,0,0,1,3.1,3.979Z" transform="translate(-386.053 -502.929)" fill="#006db0"></path>
        <path id="Path_8232" data-name="Path 8232" d="M398.513,544.545c-.111.026-.218.055-.325.085-.077.021-.15.043-.222.068-.013,0-.013.013-.026.009-.038.013-.073.026-.111.043l-2.466-4.633h0c-.171-.325-.342-.641-.513-.966,2.218-2.248,3.086-4.749,1.517-7.771,1.376-1.218,2.757-2.449,4.163-3.7a5.488,5.488,0,0,0,1.244.4,6.108,6.108,0,0,0,2.283.03,4.381,4.381,0,0,0,.641-.132c.128-.034.252-.068.376-.111a6.469,6.469,0,0,0,.7-.257c.03.158.06.321.094.474.017.068.03.133.043.2l.038.18c.09.449.192.893.308,1.329.013.064.03.124.047.188s.038.137.047.175a.066.066,0,0,0,.008.034,25.648,25.648,0,0,0,2.248,5.561h0a23.718,23.718,0,0,0,1.74,2.757v.013s.295.432.868,1.128c.09.111.192.235.3.359.145.175.308.346.453.513a27.281,27.281,0,0,0,2.894,2.748,7.24,7.24,0,0,0-.757.449,6.414,6.414,0,0,0-.594.458,5.968,5.968,0,0,0-1.74,2.607c-.013.034-.021.068-.034.1a6.678,6.678,0,0,0-.2.816,6.3,6.3,0,0,0-.09.859l-5.232.539c-.047-.184-.107-.363-.171-.547a6.5,6.5,0,0,0-1.154-2,6.1,6.1,0,0,0-1.633-1.359,1.094,1.094,0,0,0-.1-.051,6.108,6.108,0,0,0-1.71-.637,6.445,6.445,0,0,0-1.107-.145,6.375,6.375,0,0,0-1.838.18Z" transform="translate(-383.843 -476.507)" fill="#006db0"></path>
        <path id="Path_8233" data-name="Path 8233" d="M424.467,586.982l1.522,4.488c-.047.03-.094.06-.141.094a6.411,6.411,0,0,0-.594.457,5.968,5.968,0,0,0-1.74,2.607c-.013.034-.021.068-.034.1a6.677,6.677,0,0,0-.2.816,6.473,6.473,0,0,0-.017,2.073c.009.073.021.15.034.227a7.887,7.887,0,0,0,.363,1.338.512.512,0,0,0,.03.073,6.105,6.105,0,0,0,.35.757,33.9,33.9,0,0,1-6.266-2.346h0a73.339,73.339,0,0,1-10.019-5.843,45.176,45.176,0,0,1-3.659-2.889,5.982,5.982,0,0,0,1.21.068c.265-.017.526-.047.791-.09a4.394,4.394,0,0,0,.641-.132c.128-.034.252-.068.376-.111a6.45,6.45,0,0,0,.7-.256,4.422,4.422,0,0,0,.4-.2,6.49,6.49,0,0,0,1.3-.923,6.734,6.734,0,0,0,2.1-3.723l5.582-.577s.013.043.021.064a.527.527,0,0,0,.03.073,6.869,6.869,0,0,0,.957,1.718,5.981,5.981,0,0,0,1.958,1.646c.1.051.205.1.308.145a5.493,5.493,0,0,0,1.244.4,5.985,5.985,0,0,0,1.492.12c.265-.017.526-.047.791-.09a2.925,2.925,0,0,0,.462-.09Z" transform="translate(-389.139 -508.216)" fill="#006db0"></path>
        <path id="Path_8234" data-name="Path 8234" d="M442.715,569.55a3.247,3.247,0,0,1,1.287-.214,25.633,25.633,0,0,0,2.859,1.522h0a3.5,3.5,0,0,1,.487.979,3.166,3.166,0,0,1,.141.56,3.314,3.314,0,0,1-2.171,3.753,3.452,3.452,0,0,1-4.685-2.116s-.009,0-.009-.013a3.5,3.5,0,0,1,2.086-4.471Z" transform="translate(-409.939 -500.397)" fill="#006db0"></path>
        <path id="Path_8235" data-name="Path 8235" d="M462.579,610.114a3.3,3.3,0,0,1-2.171,3.748,3.449,3.449,0,0,1-4.685-2.111c0-.009-.008-.009,0-.013a3.5,3.5,0,0,1,2.082-4.471,3.618,3.618,0,0,1,4.642,2.287,3.071,3.071,0,0,1,.141.56Z" transform="translate(-418.583 -521.992)" fill="#006db0"></path>
        <path id="Path_8236" data-name="Path 8236" d="M514.349,460.674c-.248,1.838-.628,3.654-1.009,5.462a35.159,35.159,0,0,1-.949,3.513,42.132,42.132,0,0,1-2.629,6.33,45.176,45.176,0,0,1-6.193,9.083,50.7,50.7,0,0,1-6.89,6.484,44.428,44.428,0,0,1-11.2,6.322,52.318,52.318,0,0,1-8.241,2.5c-1.321.291-2.65.517-3.988.693-.188.026-.372.051-.56.073-.15.017-.333.038-.534.06a53.076,53.076,0,0,1-7.365.167,1.076,1.076,0,0,1-.2-.013,6.727,6.727,0,0,0,2.043-3.71c.021-.107.038-.218.051-.325h0a6.551,6.551,0,0,0,.051-.821,5.962,5.962,0,0,0-.06-.825,6.569,6.569,0,0,0-1.475-3.291,6.1,6.1,0,0,0-1.633-1.359,1.056,1.056,0,0,0-.1-.051,6.11,6.11,0,0,0-1.71-.637,6.439,6.439,0,0,0-1.107-.145,6.152,6.152,0,0,0-1.453.1l-1.569-4.633a5.412,5.412,0,0,0,.449-.368,6.742,6.742,0,0,0,2.107-3.77c.021-.107.038-.218.051-.325h0a6.563,6.563,0,0,0,.051-.821,4.2,4.2,0,0,0-.034-.564q1.071.308,2.223.526c.18.034.355.064.539.094a15.266,15.266,0,0,0,2.783.4c.252.017.509.03.778.039.568.021,1.128.021,1.693,0,.235,0,.47-.013.705-.03a25.746,25.746,0,0,0,6.065-1.09,26.045,26.045,0,0,0-4.642-50.782c-.312-.038-.624-.068-.94-.094s-.645-.047-.966-.056c0,0-.188-.013-.509-.017h-.291c-.244,0-.479.009-.722.009a27.757,27.757,0,0,0-6.57.953c.021-.107.038-.218.051-.325h0a6.561,6.561,0,0,0,.051-.821,6.276,6.276,0,0,0-.376-2.111,6.77,6.77,0,0,0-.8-1.556.166.166,0,0,1-.021-.03c-.017-.021-.038-.047-.068-.086a7.085,7.085,0,0,0-1.214-1.175l2.684-5.069a5.993,5.993,0,0,0,1.21.068c.265-.017.526-.047.791-.09a4.39,4.39,0,0,0,.641-.132c.128-.034.252-.068.376-.111a6.457,6.457,0,0,0,.7-.257,4.411,4.411,0,0,0,.4-.2,6.488,6.488,0,0,0,1.3-.923,6.742,6.742,0,0,0,2.107-3.77c.021-.107.038-.218.051-.325h0a6.561,6.561,0,0,0,.051-.821,5.947,5.947,0,0,0-.06-.825,6.543,6.543,0,0,0-1.355-3.142,34.428,34.428,0,0,1,3.539.192c.863.09,1.628.2,2.3.316q1.725.2,3.432.534a47.231,47.231,0,0,1,5.591,1.436,50.838,50.838,0,0,1,6.411,2.556c1.359.663,2.68,1.385,3.979,2.146a44.663,44.663,0,0,1,5.941,4.2,43.088,43.088,0,0,1,5.279,5.245,50.211,50.211,0,0,1,3.2,4.026,46.62,46.62,0,0,1,4.244,7.5,45.923,45.923,0,0,1,2.347,6.617,39.519,39.519,0,0,1,1.269,7.309c.111,1.59.188,3.184.231,4.77a37.581,37.581,0,0,1-.342,5.762Z" transform="translate(-419.789 -408.05)" fill="url(#linear-gradient)"></path>
        <path id="Path_8237" data-name="Path 8237" d="M433.429,419.407l-2.6,4.915a5.845,5.845,0,0,0-1.12-.158,6.252,6.252,0,0,0-1.047.043c-.1.013-.2.03-.3.047-.047.009-.09.017-.137.021-.12.021-.239.047-.355.077-.184.043-.363.094-.543.154-.013,0-.013.013-.026.008a6.256,6.256,0,0,0-4.108,4.035l-5.946-2.624a6.223,6.223,0,0,0-1.889-6.142,10.438,10.438,0,0,0-.9-.705c.427-.295.829-.577,1.248-.846s.838-.534,1.257-.791a.622.622,0,0,1,.056-.038,52.463,52.463,0,0,1,5.168-2.812,1.589,1.589,0,0,1,.15-.068,52.158,52.158,0,0,1,8.938-3.2,4.29,4.29,0,0,0-.218.547c-.013.034-.021.068-.034.1a6.674,6.674,0,0,0-.2.816,6.473,6.473,0,0,0-.017,2.073c.009.073.021.15.034.227a7.89,7.89,0,0,0,.363,1.338.511.511,0,0,0,.03.073,6.868,6.868,0,0,0,.957,1.718,5.9,5.9,0,0,0,1.231,1.193Z" transform="translate(-395.071 -409.922)" fill="#006db0"></path>
        <path id="Path_8238" data-name="Path 8238" d="M405.668,577.746a3.43,3.43,0,0,1-3.736,2.988,3.5,3.5,0,1,1,.637-6.971,3.412,3.412,0,0,1,3.1,3.979Z" transform="translate(-386.053 -502.929)" fill="#fff"></path>
        <path id="Path_8239" data-name="Path 8239" d="M445.328,576.14a3.453,3.453,0,0,1-4.685-2.116s-.009,0-.009-.013a3.5,3.5,0,0,1,2.086-4.471,3.247,3.247,0,0,1,1.287-.214,3.668,3.668,0,0,1,2.859,1.522h0a3.5,3.5,0,0,1,.487.979,3.164,3.164,0,0,1,.141.56,3.314,3.314,0,0,1-2.171,3.753Z" transform="translate(-409.945 -500.391)" fill="#fff"></path>
        <path id="Path_8240" data-name="Path 8240" d="M460.407,613.863a3.449,3.449,0,0,1-4.685-2.111c0-.009-.008-.009,0-.013a3.5,3.5,0,0,1,2.082-4.471,3.618,3.618,0,0,1,4.642,2.287,3.071,3.071,0,0,1,.141.56,3.3,3.3,0,0,1-2.171,3.749Z" transform="translate(-418.583 -521.992)" fill="#fff"></path>
        <path id="Path_8241" data-name="Path 8241" d="M382.161,498.779a6.6,6.6,0,0,0,.017,2.3,7.886,7.886,0,0,0,.363,1.338.527.527,0,0,0,.03.073,6.873,6.873,0,0,0,.957,1.718q-1.872,1.59-3.736,3.176a6.487,6.487,0,0,0-9.8,3c-.363-.415-.838-4.975-.876-6.822a49.721,49.721,0,0,1,.231-6.954,44.06,44.06,0,0,1,1.274-6.877,6.585,6.585,0,0,0,4.462,2.607,6.492,6.492,0,0,0,4.877-1.483c.274.18,2.68,2.753,4.163,4.407a5.971,5.971,0,0,0-1.774,2.71,6.667,6.667,0,0,0-.2.816Z" transform="translate(-369.098 -454.818)" fill="#006db0"></path>
        <path id="Path_8242" data-name="Path 8242" d="M410.055,505.665a.6.6,0,0,1,.15.021,3.582,3.582,0,0,1,3.078,3.919,3.379,3.379,0,0,1-3.5,3.069,2.181,2.181,0,0,1-.47-.021,3.567,3.567,0,0,1-3.15-3.949A3.434,3.434,0,0,1,410.055,505.665Z" transform="translate(-390.311 -463.931)" fill="#00aae5"></path>
        <path id="Path_8243" data-name="Path 8243" d="M379.831,479.665a3.537,3.537,0,1,1,.744-7.035,3.537,3.537,0,0,1-.739,7.035Z" transform="translate(-373.423 -445.018)" fill="#00aae5"></path>
        <path id="Path_8244" data-name="Path 8244" d="M401.691,441.305a3.336,3.336,0,0,1-3.321-3.419A3.445,3.445,0,0,1,402,434.248a3.5,3.5,0,0,1,3.462,3.522A3.619,3.619,0,0,1,401.691,441.305Z" transform="translate(-385.858 -423.05)" fill="#00aae5"></path>
        <path id="Path_8245" data-name="Path 8245" d="M444.619,448.249a3.535,3.535,0,0,1,3.133,2.017c.03.068.056.133.085.2a3.435,3.435,0,0,1,.252,1.312,3.628,3.628,0,0,1-3.778,3.535,3.389,3.389,0,0,1-2.5-1.163,3.291,3.291,0,0,1-.487-.752,3.631,3.631,0,0,1-.329-1.5A3.453,3.453,0,0,1,444.619,448.249Z" transform="translate(-410.261 -431.066)" fill="#00aae5"></path>
        <path id="Path_8246" data-name="Path 8246" d="M380.281,541.936a3.461,3.461,0,0,1-3.308-3.714A3.59,3.59,0,0,1,380.854,535a3.481,3.481,0,1,1-.573,6.937Z" transform="translate(-373.6 -480.733)" fill="#00aae5"></path>
        <path id="Path_8247" data-name="Path 8247" d="M405.668,577.746a3.43,3.43,0,0,1-3.736,2.988,3.5,3.5,0,1,1,.637-6.971,3.412,3.412,0,0,1,3.1,3.979Z" transform="translate(-386.053 -502.929)" fill="#00aae5"></path>
        <path id="Path_8248" data-name="Path 8248" d="M386.687,449.6l1.393,1.6c-.389.727-.791,1.47-1.188,2.218-.53.992-1.056,1.987-1.586,2.979-.205.385-.209.385-.637.3a6.586,6.586,0,0,0-2.727-.03c-.026,0-.06-.026-.133-.056a51.453,51.453,0,0,1,4.873-7.023Z" transform="translate(-376.376 -431.84)" fill="#006db0"></path>
        <path id="Path_8249" data-name="Path 8249" d="M464.178,416.259a3.455,3.455,0,0,1-4.689-2.111c0-.008,0-.008,0-.013a3.5,3.5,0,0,1,2.082-4.467,3.616,3.616,0,0,1,4.642,2.287,3.071,3.071,0,0,1,.141.56,3.311,3.311,0,0,1-2.171,3.749Z" transform="translate(-420.738 -408.851)" fill="#00aae5"></path>
        <path id="Path_8250" data-name="Path 8250" d="M460.407,613.863a3.449,3.449,0,0,1-4.685-2.111c0-.009-.008-.009,0-.013a3.5,3.5,0,0,1,2.082-4.471,3.618,3.618,0,0,1,4.642,2.287,3.071,3.071,0,0,1,.141.56,3.3,3.3,0,0,1-2.171,3.749Z" transform="translate(-418.583 -521.992)" fill="#00aae5"></path>
        <path id="Path_8251" data-name="Path 8251" d="M445.328,576.14a3.453,3.453,0,0,1-4.685-2.116s-.009,0-.009-.013a3.5,3.5,0,0,1,2.086-4.471,3.247,3.247,0,0,1,1.287-.214,3.668,3.668,0,0,1,2.859,1.522h0a3.5,3.5,0,0,1,.487.979,3.164,3.164,0,0,1,.141.56,3.314,3.314,0,0,1-2.171,3.753Z" transform="translate(-409.945 -500.391)" fill="#00aae5"></path>
        <path id="Path_8252" data-name="Path 8252" d="M422.43,498.941c.021-.068.047-.137.068-.2-.021.064-.043.132-.064.2h0Z" transform="translate(-399.634 -459.977)" fill="#006db0"></path>
        <path id="Path_8253" data-name="Path 8253" d="M415.275,459.595c-.15.12-.3.256-.453.389-.227.2-.449.406-.658.6l-.013.013c-.085.077-.167.154-.244.227-.12.111-.231.218-.329.312a2.341,2.341,0,0,0-.179.175c-.056.051-.1.094-.137.133-.077.073-.12.115-.12.115v.009c-.115.111-.231.226-.338.346a25.729,25.729,0,0,0-4.915,7.309c-.056.115-.107.231-.15.346h0s-.013.03-.034.086h0c-.286.663-.539,1.334-.761,2.022l-.064.18c-.021.064-.047.133-.068.2-.073.205-.141.4-.2.586A6.11,6.11,0,0,0,404.9,472a6.52,6.52,0,0,0-2.945.034c-.111.026-.218.056-.325.086-1.7-1.765-3.389-3.509-5.112-5.283a3.819,3.819,0,0,0,.671-2.445,6.57,6.57,0,0,0-1.7-4.531l-.3-.351a.924.924,0,0,1-.03-.111c.975-1.829,1.975-3.706,2.932-5.51a7.7,7.7,0,0,0,.829.244,6.364,6.364,0,0,0,3.714-.5,6.148,6.148,0,0,0,2.389-1.872l6.933,3.073a7.88,7.88,0,0,0,.363,1.338.52.52,0,0,0,.03.073,6.2,6.2,0,0,0,2.915,3.36Z" transform="translate(-384.02 -433.077)" fill="#006db0"></path>
        <path id="Path_8254" data-name="Path 8254" d="M431.983,554.261c-.573-.7-.863-1.128-.863-1.128v-.013C431.389,553.509,431.68,553.889,431.983,554.261Z" transform="translate(-404.61 -491.113)" fill="#006db0"></path>
      </g>
    </g>
  </g>
</svg>
